<svg xmlns="http://www.w3.org/2000/svg" height="640" width="640" version="1.1">
	<g transform="translate(0 -412.36)">
		<g>
			<path d="m217.17 1025.5q-2.9297-6.4453-4.6875-11.719-2.3438-2.9297-4.6875-3.5157 0-91.992 0-185.16 0-93.75 0-186.33l-2.9297-2.9297q-35.742-12.891-48.047-44.531-13.477-33.398-15.82-74.414-1.1719-8.2031 3.5156-29.297 3.5156-22.266 16.406-10.547 10.547 10.547 10.547 30.469 0 19.336 0 32.812 1.7578 22.266 10.547 37.5 8.2031 14.062 22.852 21.68l4.1016 1.1719q-0.58593-31.641-2.3438-74.414-1.1719-46.289 2.3438-73.242 1.7578-9.9609 9.375-9.9609t14.648 2.3438q5.8594 29.297 4.6875 77.93-1.1719 43.945-1.7578 76.172 24.609-7.0312 30.469-32.812 5.8594-31.641 5.8594-53.32 0.58594-3.5156 1.1719-5.8594 1.7578-5.2734 2.3438-12.305 1.7578-15.234 11.133-19.922 14.062 8.2031 14.062 26.367 0 15.82-0.58594 29.297 0 33.984-16.406 66.211-18.164 32.812-48.047 40.43 0 63.867 0 124.22 0 60.938 0 124.8 0.58594 34.57 1.1719 68.555 0 30.469-6.4453 70.312-3.5156 0-6.4453-0.5859-2.3438-0.586-5.8594-0.586l-1.1719 1.1719zm195.7 0.586q-11.719-12.891-11.719-46.875 0.58594-31.055 1.1719-58.008 0-47.461 0-94.922t0-94.922q0.58594-22.266 1.7578-47.461 0.58594-24.609-2.9297-48.047-31.641-7.0312-45.117-33.984-14.648-28.125-16.992-64.453-2.9297-19.922-2.9297-31.055 0-16.406 11.133-27.539h7.6172q11.133 11.133 11.133 30.469 0.58594 18.75 1.1719 39.258 1.1719 16.406 10.547 31.055 7.6172 12.891 20.508 26.367h4.1016q4.1016-27.539 3.5156-54.492-1.7578-27.539-2.3438-53.32 0-11.719-0.58593-22.852-1.1719-12.305 0.58593-15.234 2.9297-4.6875 5.2734-8.2031 4.1016-5.2734 7.0312-9.375h8.2031q7.0312 16.992 7.0312 28.711 0 14.648 0 26.953 0 24.023 0 50.391 0 27.539 0 57.422l2.9297 2.9297q5.8594-7.0312 9.9609-12.305 4.6875-5.2734 9.9609-6.4453 10.547-22.852 13.477-49.805 2.3438-12.891 2.9297-26.953 1.1719-13.477 1.1719-26.953 12.891-11.719 18.75-0.58594 7.0312 12.305 7.0312 27.539 0 13.477-0.58593 19.336-1.7578 9.375-3.5156 18.75-1.7578 27.539-17.578 57.422-15.234 26.953-42.773 30.469-2.9297 24.023-2.9297 50.391 0.58594 23.438 1.1719 49.805 0 43.359 0 87.891 0 46.875 0 95.508 1.7578 26.367 2.3438 54.492 0.58593 28.711-11.133 53.906h-7.6172l-1.7578-5.2734zm-278.91-38.14q-2.9297-19.922 0.58594-41.602 5.2734-21.68 7.6172-41.602 4.1016-41.016 7.6172-80.273 2.3438-40.43 3.5156-84.961-1.7578-15.234-2.3438-36.328 0-24.023 14.062-32.227 16.992 13.477 16.992 30.469 0 17.578-0.58594 38.086 0 29.883-0.58594 57.422-0.58593 25.781-3.5156 50.391-2.3438 19.922-5.2734 38.086-2.9297 16.992-5.2734 31.641 0 7.6172-1.7578 16.992-0.58594 10.547-2.3438 22.852-3.5156 24.609-11.133 31.055-4.1016 3.5156-8.2031 1.7578-5.2734-2.9297-7.6172-2.9297l-1.7578 1.1719zm155.27 2.9297-7.0312-9.375q-5.2734-31.641-10.547-65.039-4.6875-33.398-8.7891-64.453-0.58593-22.266-0.58593-44.531 0-22.266-2.3438-44.531-0.58594-17.578-1.7578-40.43-1.1719-25.781 1.7578-36.328 2.3438-7.0312 7.0312-7.0312 0.58593 0 7.0312-4.6875 1.1719 0 1.1719-1.1719 14.062 12.891 14.062 35.742 0 22.266-1.7578 44.531 1.1719 34.57 2.3438 69.141 2.3438 35.156 5.8594 69.727 2.3438 19.922 7.6172 44.531 5.8594 27.539 5.8594 50.977-3.5156 2.3438-9.375 2.3438-3.5156 0-8.2031-0.58594-0.58594 0-1.1719 0l-1.1719 1.1719zm41.016-0.58594-4.1016-3.5156q0-9.9609 1.7578-14.648 2.3438-5.8594 3.5156-16.992 4.1016-30.469 8.2031-63.281 4.1016-33.398 8.2031-69.727 1.7578-26.367 0-67.383-2.9297-46.289 1.1719-72.656 22.852-23.438 25.781 15.82 1.7578 33.984 1.1719 52.734 0 29.297-0.58594 56.25-0.58593 26.953-3.5156 51.562-4.1016 32.812-10.547 63.867-8.2031 35.742-8.2031 63.281-5.8594 5.8594-8.7891 6.4453-3.5156 1.1719-5.2734 1.1719-4.1016 1.7578-7.6172 1.7578l-1.1719-4.6875zm156.45 0-7.0312-9.375q0-13.477-1.7578-28.125-2.3438-14.648-5.8594-31.055-5.2734-31.641-9.9609-64.453-3.5156-40.43-4.1016-82.617 0-43.359 0-89.062 2.9297-0.58594 7.0312-4.6875 4.1016-3.5156 8.2031-8.2031 13.477 12.305 13.477 38.086 0 23.438-1.7578 41.016 0.58593 28.711 1.7578 58.008 1.7578 28.711 3.5156 56.836 2.9297 29.883 9.9609 63.281 6.4453 33.398 6.4453 56.836-5.2734 3.5156-9.375 5.2734-4.1016 2.9297-9.375 2.9297l-1.1719-4.6875z"/>
		</g>
	</g>
</svg>
