<svg xmlns="http://www.w3.org/2000/svg" height="640" width="640" version="1.1">
	<g transform="translate(0 -412.36)">
		<g>
			<path d="m254.08 1024.3q-6.4453-4.1015-8.2031-8.2031-1.1719-3.5156-1.1719-12.305 23.438-24.609 43.945-52.734 20.508-27.539 41.602-53.906 28.711-34.57 54.492-69.727 26.367-35.156 49.219-73.242 9.375-14.648 18.75-31.055 9.375-16.992 5.8594-35.742-6.4453-15.82-31.641-27.539-25.195-12.305-41.016-13.477-20.508 22.852-34.57 51.562-14.062 28.125-26.953 56.25-16.406 33.398-43.359 65.625t-53.32 59.18q-11.719 12.891-23.438 24.609-11.719 11.719-25.195 21.094-4.6875 4.1016-11.719 7.0312-6.4453 3.5156-11.133-4.1016-1.7578-4.6875-1.1719-10.547 0.58594-5.8594 3.5156-9.9609 2.9297-2.3438 6.4453-4.6875 3.5156-2.9297 7.0312-5.2734 8.7891-7.0312 16.406-16.992 8.2031-9.9609 16.406-18.75 25.781-26.953 49.805-56.25 24.609-29.297 43.945-61.523 14.648-24.023 26.953-48.047 12.305-24.609 26.367-49.219 8.2031-15.234-4.6875-22.852-12.891-8.2031-22.852-17.578-14.648-18.164-19.922-37.5-5.2734-19.336-1.7578-43.359 2.9297-21.094 14.062-42.773 11.133-22.266 30.469-31.055 12.891-5.2734 30.469-5.8594 18.164-1.1719 20.508 17.578-9.9609 5.8594-19.336 4.6875-8.7891-1.1719-18.164 2.9297-18.75 11.133-28.125 38.086-8.7891 26.953-2.3438 48.633 16.406 40.43 46.875 52.148 30.469 11.719 63.281 29.297 9.9609 5.8594 24.023 13.477 14.648 7.6172 18.164 19.922 5.8594 29.297-4.6875 53.906-9.9609 24.609-25.781 48.047-27.539 45.703-59.766 87.891-31.641 41.602-62.109 84.375-11.133 16.406-24.023 30.469-12.891 14.648-25.781 29.883-5.2734 7.0313-11.133 12.305-5.8594 5.8594-14.062 7.0313l-1.1719-1.7579z"/>
		</g>
	</g>
</svg>
