<?xml version="1.0" encoding="UTF-8" standalone="no"?>
<!-- Created with Inkscape (http://www.inkscape.org/) -->

<svg
   width="300mm"
   height="300mm"
   viewBox="0 0 300 300"
   version="1.1"
   id="svg1"
   xml:space="preserve"
   inkscape:version="1.3.2 (091e20e, 2023-11-25, custom)"
   sodipodi:docname="桶-seal.svg"
   xmlns:inkscape="http://www.inkscape.org/namespaces/inkscape"
   xmlns:sodipodi="http://sodipodi.sourceforge.net/DTD/sodipodi-0.dtd"
   xmlns="http://www.w3.org/2000/svg"
   xmlns:svg="http://www.w3.org/2000/svg"><sodipodi:namedview
     id="namedview1"
     pagecolor="#ffffff"
     bordercolor="#000000"
     borderopacity="0.25"
     inkscape:showpageshadow="2"
     inkscape:pageopacity="0.0"
     inkscape:pagecheckerboard="0"
     inkscape:deskcolor="#d1d1d1"
     inkscape:document-units="mm"
     inkscape:zoom="0.74029882"
     inkscape:cx="469.40504"
     inkscape:cy="573.4171"
     inkscape:window-width="1920"
     inkscape:window-height="1009"
     inkscape:window-x="-8"
     inkscape:window-y="-8"
     inkscape:window-maximized="1"
     inkscape:current-layer="layer1" /><defs
     id="defs1" /><g
     inkscape:label="Layer 1"
     inkscape:groupmode="layer"
     id="layer1"><path
       style="fill:#000000"
       d="m 220.12865,293.30595 c -1.72796,-1.91263 -3.93836,-6.66477 -3.93836,-8.46705 0,-1.21676 0.20005,-1.58556 1.33029,-2.45257 0.73166,-0.56124 1.67156,-1.34372 2.08866,-1.73882 l 0.75837,-0.71838 -1.17288,-0.23989 c -1.61866,-0.33105 -2.12923,-0.84178 -2.7951,-2.79598 -1.18864,-3.48847 -0.38377,-8.01723 1.74796,-9.83525 0.67022,-0.57159 1.53173,-1.2282 1.91445,-1.45913 0.65196,-0.39338 0.59898,-0.52016 -0.83983,-2.00974 -2.18342,-2.26047 -2.75182,-3.8579 -2.90604,-8.16723 -0.86697,-24.22453 -1.36389,-33.22779 -2.3294,-42.20462 -0.67631,-6.28793 -1.50007,-11.13198 -2.03476,-11.96521 -0.89398,-1.39312 -2.91628,-2.001 -7.27207,-2.18591 -3.76033,-0.15962 -4.10195,-0.11533 -5.29842,0.68696 -3.88793,2.60704 -4.96568,10.1051 -6.58354,45.80277 -1.12341,24.78771 -2.08648,35.38796 -3.69303,40.64795 -0.63611,2.0827 -1.09089,2.79979 -2.89908,4.57129 -1.75652,1.72088 -2.36823,2.1011 -3.38034,2.1011 -2.64343,0 -3.214,-1.72349 -3.56862,-10.77954 -0.1574,-4.01949 -0.40198,-10.18575 -0.54352,-13.7028 -0.36613,-9.09749 1.03107,-23.80083 3.31606,-34.89647 1.05114,-5.10423 1.56542,-6.63413 2.72603,-8.10961 0.93233,-1.18527 0.94626,-1.93911 0.0358,-1.93911 -2.16678,0 -2.91038,-2.93992 -3.281,-12.97198 -0.43184,-11.68922 -0.44353,-11.70525 -8.34428,-11.44104 -9.81216,0.32813 -10.71883,2.13725 -11.22772,22.40328 -0.48797,19.43299 -3.3104,49.27013 -5.65849,59.81839 -1.27502,5.72775 -3.73941,9.25258 -7.86544,11.24995 -2.39332,1.15859 -3.43023,0.89746 -4.84552,-1.22025 -3.11844,-4.66616 -3.08081,-8.67071 0.25977,-27.64347 1.84719,-10.49112 2.80706,-17.49905 3.27824,-23.93422 0.43014,-5.87461 0.90184,-7.89722 2.55653,-10.96224 1.07864,-1.99799 1.16426,-2.38903 0.96528,-4.40876 -0.12009,-1.21898 -0.62666,-4.17878 -1.12571,-6.57735 -1.12035,-5.38471 -1.1764,-9.81061 -0.20205,-15.9548 1.27967,-8.06959 1.59812,-17.95221 1.37263,-42.59856 -0.20413,-22.31241 -0.44363,-28.44963 -1.54838,-39.67738 -0.96798,-9.83782 -0.63633,-12.87968 1.67433,-15.35647 1.23186,-1.32044 1.57434,-1.48844 2.97135,-1.45761 2.0301,0.0448 4.31037,1.2209 5.75669,2.96916 2.33861,2.82683 2.95782,6.7965 3.49283,22.39185 0.3908,11.39165 0.94213,14.20191 3.02358,15.41182 2.15781,1.25431 11.35266,2.58901 13.72828,1.99277 2.21455,-0.55582 2.80402,-7.92309 2.10888,-26.35708 -0.61747,-16.37427 -1.28262,-20.193984 -4.24643,-24.385694 -0.7481,-1.05803 -4.84379,-5.3181 -9.10154,-9.46681 -11.61294,-11.31556 -11.08781,-9.73137 -11.55032,-34.844216 -0.36111,-19.607353 -0.63044,-22.087515 -2.45474,-22.604387 -0.35192,-0.09971 -1.99735,-0.292474 -3.65652,-0.428369 -1.65917,-0.135895 -3.09849,-0.37948 -3.1985,-0.541301 -0.37613,-0.608588 0.32381,-1.47213 2.96213,-3.654472 6.58813,-5.449511 9.33879,-6.13605 19.69864,-4.916598 7.9118,0.931292 16.68425,1.594033 26.48985,2.001252 16.3291,0.678137 21.02815,1.295757 25.10879,3.300177 5.5024,2.702792 6.9029,6.864908 6.5903,19.585626 -0.27682,11.264928 -1.72414,16.171098 -6.12137,20.750358 -2.75236,2.8663 -5.32168,4.26487 -10.04788,5.46942 -12.15612,3.09818 -21.83621,2.42834 -25.71479,-1.77943 -1.71497,-1.86052 -2.05492,-2.88077 -1.73575,-5.20934 0.2755,-2.01 1.13809,-3.58272 2.53755,-4.62658 0.93835,-0.69991 1.49653,-0.76709 6.21194,-0.74766 2.84952,0.0118 7.33026,0.094 9.95719,0.18271 3.61433,0.1221 5.00826,0.0385 5.73,-0.34368 1.30982,-0.69358 2.8807,-3.817444 4.43401,-8.81751 2.02671,-6.523958 2.29994,-10.687166 0.84691,-12.90476 -0.34973,-0.533755 -1.49619,-1.411647 -2.54769,-1.950871 -1.83939,-0.943263 -2.21638,-0.990853 -9.9508,-1.256132 -8.43629,-0.289353 -10.80364,-0.541199 -18.75148,-1.994845 -6.64392,-1.215158 -9.58254,-1.187356 -12.14375,0.114894 -1.60134,0.814202 -2.15112,1.349405 -2.89744,2.820632 -0.91684,1.807384 -0.92216,1.874799 -1.15387,14.616321 -0.12803,7.040311 -0.35179,13.247731 -0.49723,13.794271 -0.35377,1.32941 -1.07809,1.87059 -2.21318,1.65361 -0.69182,-0.13225 -1.07863,0.0359 -1.47547,0.6416 -0.68097,1.03929 -1.05188,4.0834 -0.71582,5.87477 l 0.25782,1.37427 1.89571,-2.11955 c 1.74482,-1.95085 1.98654,-2.0996 3.03699,-1.86888 0.6277,0.13786 2.51622,1.38164 4.1967,2.76394 3.64725,3.0001 9.22494,6.82274 12.00477,8.2274 2.44351,1.23472 6.5667,5.12714 8.32068,7.85499 2.50807,3.90065 4.4544,9.60244 4.46635,13.08423 0.0189,5.507784 3.30446,8.840254 8.71581,8.840254 2.38203,0 6.0295,-1.3428 8.41241,-3.09699 1.71987,-1.2661 2.57185,-2.25935 3.83624,-4.47235 2.98419,-5.223084 4.57444,-6.539854 7.49991,-6.210104 2.12269,0.23925 3.11535,1.34588 3.7447,4.17464 0.60462,2.717634 0.53666,16.434624 -0.23923,48.285354 -1.25208,51.39852 -1.24983,87.07276 0.007,103.28048 0.85992,11.09356 0.61164,28.44069 -0.49161,34.34835 -1.39087,7.44778 -3.03789,10.77954 -5.32875,10.77954 -0.94775,0 -1.49776,-0.30987 -2.48021,-1.39733 z M 206.13356,187.24493 c 5.49677,-2.0566 6.4725,-5.08039 6.00439,-18.60743 -0.22966,-6.63649 -0.66087,-8.65947 -2.07212,-9.72116 -1.69845,-1.27776 -8.33106,-1.72091 -10.3249,-0.68986 -2.27587,1.1769 -3.29371,5.7226 -3.26992,14.60363 0.034,12.71559 2.87532,16.95425 9.66255,14.41482 z m -29.60499,-0.73679 c 4.12608,-1.03895 4.9844,-3.9054 5.52234,-18.44241 0.27422,-7.41038 0.0256,-9.31284 -1.31044,-10.02786 -1.30939,-0.70077 -10.75552,-0.15941 -13.95738,0.79989 -1.7532,0.52528 -3.40199,2.34434 -3.99282,4.40518 -0.58152,2.02838 -0.59776,12.91042 -0.0236,15.80869 0.23888,1.20585 0.88894,3.0889 1.44456,4.18455 0.83663,1.6498 1.35507,2.17429 3.01716,3.05238 1.8574,0.98127 2.21534,1.0449 4.8035,0.85398 1.53811,-0.11347 3.5616,-0.39895 4.49666,-0.6344 z m 34.11476,-42.38478 c 0.84391,-0.29418 1.37775,-0.88651 2.05831,-2.2838 2.07387,-4.25799 3.34235,-17.29203 1.93363,-19.86872 -0.73175,-1.33846 -3.28181,-2.97022 -5.10381,-3.26589 -1.34957,-0.21901 -6.7568,0.66905 -9.51748,1.56311 -2.61902,0.84818 -2.98439,1.80338 -2.70384,7.06876 0.5733,10.75971 2.35586,15.7122 6.05929,16.83453 1.42626,0.43222 5.98259,0.40217 7.2739,-0.048 z M 100.25102,286.01944 c -0.320972,-0.35468 -0.758642,-1.38239 -0.972602,-2.2838 -0.6919,-2.91503 -0.85806,-16.21211 -0.42457,-33.97755 1.01138,-41.44937 1.881722,-74.46365 2.249342,-85.32278 0.51981,-15.35468 -0.0627,-22.63893 -2.196122,-27.46187 -0.55644,-1.25791 -0.89083,-1.58807 -1.60844,-1.58807 -3.05447,0 -6.53584,8.05314 -8.84609,20.46285 -1.35421,7.27427 -1.89733,13.70587 -2.34514,27.77101 -0.22075,6.93362 -0.64254,15.48417 -0.9373,19.00122 -0.30034,3.58362 -0.68879,15.38992 -0.88365,26.85749 -0.57162,33.6405 -0.80872,38.04326 -2.22685,41.35162 -0.81026,1.89027 -2.81483,3.02428 -5.3692,3.03743 -1.2679,0.007 -1.78787,-0.21331 -2.7898,-1.17955 -3.22956,-3.1145 -3.42999,-6.02602 -2.4463,-35.53593 2.03889,-61.16474 4.20205,-83.20759 9.63412,-98.17279 2.59206,-7.14103 6.94188,-11.94093 14.67866,-16.19746 3.22622,-1.77496 5.408292,-3.78703 6.403802,-5.90486 1.08626,-2.31093 1.08366,-6.32474 -0.006,-8.85712 -0.71131,-1.65348 -1.03964,-1.96188 -3.324372,-3.12258 -6.99793,-3.55513 -12.82589,-9.525914 -14.77852,-15.140704 -1.58523,-4.55833 -1.7489,-8.93576 -1.2792,-34.21228 0.4486,-24.141162 0.68137,-28.116382 1.79324,-30.62413 0.9441,-2.129358 1.67816,-2.628005 3.8687,-2.628005 3.5677,0 6.51492,2.531711 7.79143,6.692973 0.92517,3.015904 0.82253,9.165146 -0.22068,13.221765 -1.31485,5.112902 -1.90741,11.272647 -2.12668,22.107187 -0.2829,13.97858 0.36414,18.53655 2.88638,20.33254 1.36284,0.97042 3.504692,1.05157 4.830302,0.183 0.55606,-0.36434 1.35098,-1.42963 1.76649,-2.36731 0.66868,-1.50899 0.76236,-2.50253 0.81536,-8.64762 0.0467,-5.41477 0.19034,-7.28261 0.65267,-8.48697 1.04489,-2.72193 1.81747,-12.252397 2.64444,-32.621436 0.52808,-13.007207 1.03937,-20.973986 1.52118,-23.7029033 0.11947,-0.676669 0.70565,-1.786596 1.30262,-2.466504 1.36596,-1.555751 2.98035,-1.639392 5.67967,-0.294264 2.4234,1.207633 3.56971,2.592 4.06724,4.9119153 0.62566,2.917371 0.46749,17.093276 -0.3689,33.062109 -0.79358,15.151333 -1.13622,41.603123 -0.58102,44.853833 0.33609,1.96778 0.67526,2.09665 2.73273,1.03834 3.17814,-1.63476 5.0776,-5.03426 5.76461,-10.31704 0.56744,-4.36341 0.70099,-4.82271 2.00349,-6.8906 0.56965,-0.90439 1.20502,-2.40104 1.41193,-3.32589 0.75256,-3.36377 1.4937,-10.96234 2.042,-20.93595 0.30823,-5.606496 0.80409,-11.361673 1.10193,-12.789281 0.29784,-1.427609 0.54165,-2.694967 0.54182,-2.816351 9.6e-4,-0.708895 1.91286,-2.154454 2.84948,-2.154454 2.13012,0 2.90458,1.974064 3.36886,8.587089 0.61644,8.780191 0.19673,31.533627 -0.74817,40.560297 -1.6931,16.17415 -5.43766,21.445014 -18.59211,26.170284 -4.05152,1.45537 -5.51357,2.66558 -5.51357,4.56384 0,2.82621 2.21585,6.17613 8.85212,13.38264 5.21721,5.66552 8.75695,10.35763 10.52842,13.95599 0.98258,1.99591 1.14813,2.81539 1.44836,7.16954 0.98014,14.21475 -0.11881,96.76942 -1.48581,111.6152 -0.44047,4.78357 -1.22496,8.94587 -1.94637,10.32696 -1.44501,2.76636 -5.97008,5.13744 -7.86702,4.12222 -2.21959,-1.18789 -3.14594,-13.40384 -1.81613,-23.94979 0.46827,-3.71356 0.99172,-5.49219 1.84311,-6.26269 0.88335,-0.79941 0.85276,-2.23861 -0.0766,-3.60333 -0.41057,-0.60292 -1.07121,-1.71412 -1.46808,-2.46932 -0.71864,-1.36747 -0.71864,-1.37719 0.001,-2.37515 1.22693,-1.70068 1.52746,-7.49645 1.7383,-33.52337 0.25031,-30.89905 -0.44064,-54.28943 -1.74703,-59.14097 -0.94497,-3.50937 -4.61983,-5.5237 -7.16471,-3.92727 -1.82537,1.14507 -2.31773,2.51925 -2.67564,7.46769 -0.45593,6.30374 -1.03351,28.49421 -1.276,49.0232 -0.71312,60.3735 -3.68299,89.70278 -9.46702,93.49262 -1.19199,0.78102 -2.50777,0.76278 -3.23872,-0.0449 z"
       id="path1" /></g></svg>
