<?xml version="1.0" encoding="UTF-8" standalone="no"?>
<!-- Created with Inkscape (http://www.inkscape.org/) -->

<svg
   xmlns:dc="http://purl.org/dc/elements/1.1/"
   xmlns:cc="http://creativecommons.org/ns#"
   xmlns:rdf="http://www.w3.org/1999/02/22-rdf-syntax-ns#"
   xmlns:svg="http://www.w3.org/2000/svg"
   xmlns="http://www.w3.org/2000/svg"
   xmlns:sodipodi="http://sodipodi.sourceforge.net/DTD/sodipodi-0.dtd"
   xmlns:inkscape="http://www.inkscape.org/namespaces/inkscape"
   version="1.0"
   width="300"
   height="300"
   id="svg2"
   inkscape:version="0.48.4 r9939"
   sodipodi:docname="dessin.svg">
  <metadata
     id="metadata2990">
    <rdf:RDF>
      <cc:Work
         rdf:about="">
        <dc:format>image/svg+xml</dc:format>
        <dc:type
           rdf:resource="http://purl.org/dc/dcmitype/StillImage" />
      </cc:Work>
    </rdf:RDF>
  </metadata>
  <sodipodi:namedview
     pagecolor="#ffffff"
     bordercolor="#666666"
     borderopacity="1"
     objecttolerance="10"
     gridtolerance="10"
     guidetolerance="10"
     inkscape:pageopacity="0"
     inkscape:pageshadow="2"
     inkscape:window-width="1215"
     inkscape:window-height="1000"
     id="namedview2988"
     showgrid="false"
     inkscape:zoom="2.2250294"
     inkscape:cx="129.01005"
     inkscape:cy="139.3918"
     inkscape:window-x="65"
     inkscape:window-y="24"
     inkscape:window-maximized="1"
     inkscape:current-layer="svg2"
     showguides="true"
     inkscape:guide-bbox="true" />
  <defs
     id="defs5" />
  <path
     style="fill:#000000"
     d="m 133.66918,285.25674 c -1.12458,-1.60626 0.16072,-64.23015 2.45523,-119.63481 1.10767,-26.74529 0.48804,-25.25756 11.76136,-28.23917 5.74408,-1.51919 23.14164,-2.76217 38.66126,-2.76217 24.61187,0 28.96881,0.61786 34.09706,4.83542 7.84415,6.45121 8.21359,8.65216 9.83067,58.5661 0.76852,23.7223 2.19509,50.70886 3.17017,59.97013 2.15393,20.45854 0.1081,29.25031 -6.80675,29.25031 -7.07386,0 -8.01353,-7.2474 -8.26898,-63.77685 -0.18288,-40.47339 -2.76661,-70.54527 -6.33149,-73.69221 -0.4433,-0.39133 -10.70917,-0.8704 -22.81307,-1.06458 -17.35206,-0.27837 -23.8916,0.61847 -30.91663,4.23999 l -8.90957,4.59305 -0.62149,61.56774 c -0.42299,41.90404 -1.60713,62.61614 -3.70757,64.85031 -3.44259,3.66176 -9.47252,4.33583 -11.6002,1.29674 z M 54.236377,265.30156 c -1.781959,-1.57304 -3.239926,-4.73814 -3.239926,-7.03358 0,-3.40803 2.848919,-4.30466 15.533187,-4.88867 l 15.533193,-0.71518 0,-36.46577 c 0,-20.05618 -0.60782,-42.05519 -1.350716,-48.88672 -1.290567,-11.86786 -1.711587,-12.43321 -9.454989,-12.69588 -14.593987,-0.49512 -15.255044,-0.78415 -14.370357,-6.28304 0.688533,-4.27969 3.02698,-5.60695 11.554338,-6.55798 10.312308,-1.15012 10.713517,-1.53034 11.323672,-10.73123 1.205284,-18.17532 3.9948,-29.80983 7.191073,-29.99253 10.943894,-0.62551 20.198088,-1.852112 25.449838,-3.3733 4.95709,-1.435839 6.53277,-0.579438 8.85522,4.81291 3.38793,7.86625 2.99672,8.31275 -8.55236,9.76058 -14.05845,1.76243 -14.992716,2.37933 -16.851858,11.12767 -2.798869,13.17003 -0.194233,16.01118 14.678088,16.01118 10.91879,0 13.33192,0.82297 14.85788,5.06715 2.35594,6.55269 -2.38598,9.15799 -16.75351,9.20464 -10.946241,0.0355 -11.290464,0.2814 -13.015811,9.29643 -1.841126,9.61998 0.725093,83.38222 3.014683,86.65253 0.716607,1.02356 6.658798,1.861 13.204858,1.861 9.00231,0 12.58323,1.12377 14.6984,4.61267 1.53806,2.53696 2.79648,5.09078 2.79648,5.67518 0,1.08034 -18.47204,2.88003 -52.81464,5.14555 -12.929272,0.85291 -20.087433,0.33787 -22.286743,-1.60361 z m 12.603386,-22.59763 c -0.200875,-2.39144 -0.654738,-11.32341 -1.008578,-19.84877 -0.353845,-8.52537 -1.059827,-24.33683 -1.568856,-35.13655 -0.616755,-13.08528 0.155304,-20.59 2.314263,-22.49587 1.781881,-1.57296 4.022282,-2.16918 4.978669,-1.32492 3.822399,3.37429 5.981797,23.4994 5.554626,51.76791 -0.397003,26.27306 -1.005753,29.86853 -5.177397,30.58003 -3.021287,0.51529 -4.859311,-0.76299 -5.092727,-3.54183 z m 41.110927,-1.72475 c -4.22821,-4.49741 -4.68372,-72.37454 -0.51043,-76.0586 5.05848,-4.46543 9.23115,1.86308 10.24315,15.53535 2.39836,32.40111 2.44299,51.2906 0.13534,57.30372 -2.81599,7.33788 -5.24972,8.13189 -9.86808,3.21953 z m 62.90588,-11.7102 c -6.71274,-6.08929 -12.57232,-25.96355 -11.50863,-39.0346 0.40783,-5.01148 3.0646,-12.11515 5.90396,-15.7859 4.67754,-6.04721 6.45572,-6.60719 18.93119,-5.9618 12.26431,0.63448 14.31872,1.54613 18.8023,8.34368 3.61008,5.47322 5.17649,13.05205 5.53897,26.79932 0.47572,18.04235 0.0762,19.51978 -6.80562,25.15851 -9.26953,7.59533 -22.78705,7.80592 -30.86217,0.48079 z m 21.77915,-17.82147 c 0.84111,-2.33943 1.73245,-8.83017 1.98073,-14.42388 0.53238,-11.99385 -4.95627,-18.42136 -13.65042,-15.98544 -5.30149,1.48535 -6.37944,4.32023 -6.37944,16.77744 0,16.93792 0.45546,17.88537 8.59761,17.88537 5.22936,0 8.44205,-1.44583 9.45152,-4.25349 z m -29.55471,-87.63208 c -11.04483,-4.81312 -16.26044,-19.015 -11.80464,-32.143542 3.80766,-11.218914 9.44753,-13.379336 36.6787,-14.050219 16.58045,-0.408487 20.28197,0.258248 25.11382,4.523627 4.75169,4.194624 5.53775,7.379081 4.86613,19.713604 -0.74816,13.74084 -1.40623,15.07011 -9.98011,20.15919 -10.89031,6.46402 -32.20601,7.31777 -44.8739,1.79734 z m 35.8184,-19.49786 c 6.4704,-12.298945 3.48161,-15.006626 -16.56455,-15.006626 -12.60537,0 -17.87861,3.165117 -17.87861,10.731236 0,7.69531 5.32381,10.73297 18.77493,10.71263 10.69709,-0.0167 12.72949,-0.85121 15.66823,-6.43724 z M 49.245879,91.7068 c 0.701393,-3.928633 7.597793,-18.684085 15.325339,-32.789865 7.727542,-14.10578 15.432238,-28.32968 17.121553,-31.608669 5.929469,-11.509211 9.123446,-12.712051 14.432741,-5.435311 2.659663,3.645218 7.269618,8.986498 10.244358,11.869508 2.97474,2.883009 10.16635,10.663153 15.98139,17.289206 5.81503,6.626054 12.31339,12.047369 14.44081,12.047369 4.51249,0 17.08408,-7.57007 26.76749,-16.118243 4.89434,-4.320549 6.93159,-8.877316 7.31735,-16.366903 0.66677,-12.9458 4.91211,-17.469332 11.19216,-11.92554 2.44915,2.162024 5.58958,7.56472 6.97872,12.005988 1.90583,6.093106 5.33099,9.330376 13.95529,13.189735 6.28625,2.813084 15.07643,6.945856 19.53378,9.183935 4.45735,2.238077 8.39554,4.14748 8.75152,4.24312 0.35596,0.09563 1.41965,3.583287 2.36373,7.750334 1.40124,6.184777 0.85501,7.576447 -2.97375,7.576447 -4.12739,0 -29.54936,-16.617021 -34.19027,-22.348416 -2.76088,-3.409624 -16.91573,2.043784 -32.82222,12.645349 -8.00711,5.336686 -15.67073,9.703067 -17.03025,9.703067 -1.35951,0 -4.08614,3.219369 -6.05915,7.154155 -4.84703,9.666437 -8.91241,9.005178 -16.77387,-2.728311 -3.64168,-5.435357 -9.14375,-12.271676 -12.22681,-15.19182 -3.08305,-2.920146 -7.14518,-8.590597 -9.02697,-12.601005 -5.119571,-10.910776 -10.143387,-11.226449 -15.544557,-0.976744 -2.562967,4.863681 -5.465375,9.379619 -6.449809,10.035416 -0.984435,0.655798 -3.934399,4.94829 -6.555469,9.538873 -7.755329,13.582788 -21.026391,31.001342 -23.619697,31.001342 -1.324764,0 -1.834798,-3.214362 -1.133409,-7.143017 z M 77.809946,84.054287 C 74.500091,72.427949 74.201692,72.617911 95.774785,72.617911 c 19.643155,0 20.398315,0.207065 19.568385,5.365616 -0.78435,4.875325 -2.52948,5.430057 -19.097849,6.07076 -10.029063,0.387827 -18.324969,0.387827 -18.435375,0 z"
     id="path3328"
     inkscape:connector-curvature="0" />
</svg>
